Coordinates
version=1
nRows=8
nColumns=44
inDegrees=yes

Units are S.I. units (second, meters, Newtons, ...)
If the header above contains a line with 'inDegrees', this indicates whether rotational values are in degrees (yes) or radians (no).

endheader
time	pelvis_tilt	pelvis_list	pelvis_rotation	pelvis_tx	pelvis_ty	pelvis_tz	hip_flexion_r	hip_adduction_r	hip_rotation_r	knee_angle_r	knee_frontal_r	knee_adduction_r	knee_angle_r_beta	ankle_angle_r	subtalar_angle_r	mtp_angle_r	hip_flexion_l	hip_adduction_l	hip_rotation_l	knee_angle_l	knee_frontal_l	knee_adduction_l	knee_angle_l_beta	ankle_angle_l	subtalar_angle_l	mtp_angle_l	lumbar_extension	lumbar_bending	lumbar_rotation	arm_flex_r	arm_add_r	arm_rot_r	elbow_flex_r	pro_sup_r	wrist_flex_r	wrist_dev_r	arm_flex_l	arm_add_l	arm_rot_l	elbow_flex_l	pro_sup_l	wrist_flex_l	wrist_dev_l
      1.00000000	     -7.47397579	      1.28242470	     -4.97833922	      0.80488167	      0.96949846	      0.47029015	     33.43167280	     -1.92763458	      3.86216770	     56.63833108	      0.00000000	      0.00000000	      0.98852536	      2.49057669	     -4.63360105	    -13.52104138	      9.41325220	      2.24866044	      2.10169929	     15.57268099	      0.00000000	      0.00000000	      0.27179456	      9.39645061	     -4.58422610	    -11.91666139	     -3.21725152	      1.01529075	      0.00339965	     -6.52322138	    -14.31585525	     -3.70861204	     31.12771518	     90.00000001	      0.00000000	      0.00000000	     -1.29252247	    -23.12636155	      5.93192427	     47.80584859	     90.00000001	      0.00000000	      0.00000000
      1.00500000	     -7.52207558	      1.49734075	     -4.99163149	      0.80392917	      0.96913805	      0.47001326	     33.83341570	     -2.15780411	      3.91406729	     55.34606623	      0.00000000	      0.00000000	      0.96597108	      2.68384466	     -4.61492384	    -13.44657988	      9.10793072	      2.51585313	      2.04025629	     15.49304480	      0.00000000	      0.00000000	      0.27040464	      9.51306458	     -4.51654654	    -11.97407206	     -3.16127370	      0.80947259	      0.00098042	     -6.82175477	    -14.27186576	     -3.72905739	     31.00543249	     90.00000001	      0.00000000	      0.00000000	     -0.86774017	    -23.33020158	      5.86030060	     48.14686383	     90.00000001	      0.00000000	      0.00000000
      1.01000000	     -7.61076623	      1.01956292	     -4.59629875	      0.80379852	      0.96974178	      0.47034186	     33.76339939	     -1.79254082	      3.34802210	     53.39169684	      0.00000000	      0.00000000	      0.93186090	      2.40734196	     -5.21380713	    -13.37386898	      8.59307465	      2.01707393	      2.54502718	     15.08635835	      0.00000000	      0.00000000	      0.26330663	      9.56668794	     -4.37765568	    -12.03303881	     -3.18060631	      1.27752299	      0.00295531	     -7.19974689	    -14.06074707	     -3.99844278	     30.41482787	     90.00000001	      0.00000000	      0.00000000	     -0.71240172	    -23.57231084	      5.82404784	     49.73827682	     90.00000001	      0.00000000	      0.00000000
      1.01500000	     -7.59828346	      1.32383414	     -4.67098567	      0.80295331	      0.96908136	      0.46995127	     34.11366375	     -2.10598925	      3.51243255	     52.12940084	      0.00000000	      0.00000000	      0.90982968	      2.70618525	     -5.00105001	    -13.37521210	      8.27774614	      2.40614324	      2.48845953	     15.13286218	      0.00000000	      0.00000000	      0.26411827	      9.78105658	     -4.40164998	    -12.13060396	     -3.17241234	      1.03903981	      0.00037683	     -7.46702074	    -14.12715646	     -4.03341231	     30.33794589	     90.00000001	      0.00000000	      0.00000000	     -0.35354525	    -23.73962950	      5.75771882	     49.93120918	     90.00000001	      0.00000000	      0.00000000
      1.02000000	     -7.64329649	      1.58479069	     -4.67548075	      0.80215479	      0.96851338	      0.47020800	     34.44802571	     -2.35537916	      3.58204697	     50.73056514	      0.00000000	      0.00000000	      0.88541539	      2.95085598	     -4.78281974	    -13.31987357	      7.96530722	      2.68975888	      2.41910803	     15.06623504	      0.00000000	      0.00000000	      0.26295541	      9.91814319	     -4.34601026	    -12.21037066	     -3.09334584	      0.76970076	      0.00571354	     -7.75098327	    -14.03392362	     -4.04872707	     30.24230340	     90.00000001	      0.00000000	      0.00000000	      0.04425141	    -23.96063907	      5.67054043	     50.24029461	     90.00000001	      0.00000000	      0.00000000
      1.02500000	     -7.90726267	      1.11474050	     -4.20440208	      0.80137134	      0.96883731	      0.47110524	     34.45056495	     -1.94205662	      3.05899118	     48.48793033	      0.00000000	      0.00000000	      0.84627403	      2.59940234	     -5.45815824	    -13.08623492	      7.75729876	      2.12600052	      2.93944151	     14.79496009	      0.00000000	      0.00000000	      0.25822077	      9.92630238	     -4.15321025	    -12.45156230	     -3.01988496	      1.12661468	      0.00132944	     -8.11138484	    -13.68726152	     -4.28525885	     29.71147572	     90.00000001	      0.00000000	      0.00000000	      0.33020920	    -24.30388903	      5.62706529	     51.73110809	     90.00000001	      0.00000000	      0.00000000
      1.03000000	     -7.97680133	      1.34428083	     -4.18122856	      0.80050967	      0.96839582	      0.47122791	     34.71748690	     -2.20394315	      3.04756567	     46.88145264	      0.00000000	      0.00000000	      0.81823571	      2.64496790	     -5.17527007	    -13.16000998	      7.45129896	      2.36370836	      2.84481705	     14.68733548	      0.00000000	      0.00000000	      0.25634236	     10.06760376	     -3.93288296	    -12.52118908	     -3.00154868	      0.88055347	      0.00258005	     -8.32231977	    -13.56007898	     -4.36397431	     29.60440226	     90.00000001	      0.00000000	      0.00000000	      0.72423435	    -24.52517480	      5.54849651	     52.12370158	     90.00000001	      0.00000000	      0.00000000
      1.03500000	     -8.01363048	      1.27034055	     -4.01810057	      0.80021734	      0.96825136	      0.47136170	     34.65013661	     -2.14476414	      2.98548423	     44.90550066	      0.00000000	      0.00000000	      0.78374884	      2.60288678	     -5.33857877	    -13.12597633	      7.04684969	      2.29152404	      2.99592650	     14.56140853	      0.00000000	      0.00000000	      0.25414452	     10.22292547	     -3.76866941	    -12.60211516	     -2.91494244	      0.95978253	      0.00204822	     -8.65276489	    -13.45326721	     -4.57632775	     29.28479702	     90.00000001	      0.00000000	      0.00000000	      0.91207211	    -24.69607695	      5.50802609	     52.98379153	     90.00000001	      0.00000000	      0.00000000
